<?xml version="1.0" encoding="UTF-8"?>
<svg id="Layer_1" xmlns="http://www.w3.org/2000/svg" version="1.1" viewBox="0 0 1080 1080">
  <!-- Generator: Adobe Illustrator 29.5.1, SVG Export Plug-In . SVG Version: 2.1.0 Build 141)  -->
  <defs>
    <style>
      .st0 {
        fill: #ff8500;
      }

      .st1 {
        fill: #fff;
      }

      .st2 {
        fill: #053c5e;
      }
    </style>
  </defs>
  <g>
    <path class="st2" d="M537.51,312.76c-2.41.53-6.13,4.27-6.67,6.68-.73,3.24-.67,18.45-.13,21.96,1.58,10.23,15.55,10.4,17.5.74.72-3.58.74-18.25.15-21.95-.75-4.73-6.16-8.47-10.85-7.43ZM455.81,337.65c-8.72,1.67-7.79,10.36-3.3,16.22,4.38,5.73,22.76,24.15,28.48,28.37,11.39,8.39,20.94-2.27,13.22-12.33-4.41-5.75-24.06-25.61-29.73-29.78-2.78-2.04-5.11-3.16-8.66-2.48ZM619.25,337.65c-1.75.34-3.7,1.81-5.12,2.9-4.85,3.73-27.05,25.76-30.03,30.38-6.43,9.96,3.19,19.27,13.98,11.32,5.6-4.12,24.73-23.27,28.87-28.87,5.88-7.96,2.13-17.64-7.7-15.72ZM535.74,363.43c-10.19,2.11-16.28,27.59-22.33,35.4-12.47,4.88-49.71-.38-42.57,22.88,1.36,4.42,5.18,6.21,7.88,9,5.98,6.18,12.33,12,18.04,18.44.5,10.87-8.45,31.39-3.59,40.84,2.63,5.12,9.15,7.41,14.63,6.28,8.11-1.66,20.85-12.33,29.32-15.11.92-.3,1.74-.86,2.79-.67,11.84,3.19,35.32,25.73,45.32,10.61,6.15-9.29-3.46-30.91-2.92-41.95,5.71-6.44,12.06-12.26,18.04-18.44,3.75-3.87,7.88-5.38,8.47-11.98,1.83-20.55-29.88-14.98-42.64-19.54-9.31-10.69-11.32-39.74-30.45-35.77Z"/>
    <path class="st2" d="M312.14,699.02c1.29-4.22,1.47-8.67,2.55-13,6.53-26.15,25.54-49.12,50.74-58.97.25-1.23.18-1.13-.57-1.84-2.36-2.23-5.03-3.82-7.4-6.61-25.89-30.54-12.19-77.28,25.95-88.59,52.57-15.6,93.03,46.69,57.5,88.59-2.37,2.79-5.03,4.38-7.4,6.61-.75.7-.81.61-.57,1.84,11.18,4.08,20.61,11.7,29.3,19.56,8.32-18.42,24.9-33.3,43.53-40.88.25-1.23.18-1.13-.57-1.84-2.37-2.23-5.03-3.82-7.4-6.61-35.52-41.9,4.95-104.19,57.5-88.59,38.1,11.31,51.83,58.06,25.95,88.59-2.37,2.79-5.03,4.38-7.4,6.61-.75.7-.81.61-.57,1.84,19.07,7.6,34.74,22.67,43.96,40.87,8.12-8.23,17.96-15.4,28.87-19.55.25-1.23.18-1.13-.57-1.84-2.37-2.23-5.03-3.82-7.4-6.61-25.63-30.23-12.46-76.79,25.28-88.38,49.48-15.2,90.68,39.34,62.31,82.75-3.77,5.77-6.86,7.83-11.54,12.25-.75.7-.81.61-.57,1.84,30.04,11.72,51.07,42.08,53.28,74.2,1.05,15.28,1.43,41.85.05,56.89-.46,5.05-2.6,6.3-6.26,9.29h-448.57v-68.4ZM536.68,524.27c-52.2,4.23-40.02,84.79,11.04,73.22,44.53-10.09,34.02-76.87-11.04-73.22ZM396.34,545.6c-52.2,4.23-40.02,84.79,11.04,73.22,44.53-10.09,34.02-76.87-11.04-73.22ZM677.03,545.6c-52.2,4.23-40.02,84.79,11.04,73.22,44.53-10.09,34.02-76.87-11.04-73.22ZM608.82,749.65v-70.62c0-32.23-35.27-61.35-66.13-62.67-33.36-1.42-72.44,27.77-72.44,62.67v70.62h103.04v-29.76c0-3.48,5.79-7.1,9.32-7.09,2.87,0,8.44,3.65,8.44,6.2v30.65h17.77ZM452.48,749.65c.99-23.54-1.31-48.12-.03-71.55.21-3.82,2.77-10.64,1.35-13.72-.47-1.03-9.14-9.38-10.67-10.65-29.13-24.13-71.8-20-96.37,8.39-22.19,25.64-16.1,56.06-16.85,87.52h122.58ZM749.16,749.65c-.79-30.81,5.23-61.18-16.01-86.59-24.39-29.17-67.71-33.76-97.21-9.33-1.54,1.27-10.2,9.63-10.67,10.65-1.42,3.07,1.15,9.9,1.35,13.72,1.27,23.42-1.02,48.01-.03,71.55h122.58Z"/>
    <path class="st0" d="M535.74,363.43c19.13-3.97,21.14,25.08,30.45,35.77,12.76,4.56,44.47-1.01,42.64,19.54-.59,6.59-4.72,8.1-8.47,11.98-5.98,6.18-12.33,12-18.04,18.44-.53,11.04,9.07,32.66,2.92,41.95-10.01,15.13-33.48-7.42-45.32-10.61-1.04-.19-1.87.37-2.79.67-8.48,2.78-21.21,13.45-29.32,15.11-5.48,1.12-12-1.16-14.63-6.28-4.86-9.45,4.09-29.97,3.59-40.84-5.71-6.44-12.06-12.26-18.04-18.44-2.7-2.79-6.52-4.58-7.88-9-7.14-23.26,30.09-18,42.57-22.88,6.06-7.81,12.15-33.29,22.33-35.4ZM540.41,388.1c-2.07-.45-1.42.28-1.98,1.14-4.12,6.37-8.29,20.78-14.05,25.01-6.46,4.74-22.94,4.19-31.04,5.83,6.34,9.2,22.6,16.19,22.23,28.82-.11,3.8-5.34,24.42-4.46,25.36,7.78-2.35,21.09-13.23,28.72-13.02s20.31,10.66,28.11,13.02c.88-.94-4.35-21.56-4.46-25.36-.37-12.63,15.89-19.61,22.23-28.82-7.46-1.58-26.5-1.41-31.94-5.82-4.45-3.61-10.07-20.47-13.37-26.17Z"/>
    <path class="st0" d="M455.81,337.65c3.55-.68,5.88.44,8.66,2.48,5.68,4.17,25.32,24.03,29.73,29.78,7.72,10.07-1.83,20.73-13.22,12.33-5.72-4.22-24.1-22.64-28.48-28.37-4.48-5.86-5.41-14.55,3.3-16.22Z"/>
    <path class="st0" d="M619.25,337.65c9.83-1.92,13.58,7.76,7.7,15.72-4.14,5.6-23.27,24.75-28.87,28.87-10.79,7.95-20.41-1.36-13.98-11.32,2.98-4.61,25.18-26.64,30.03-30.38,1.42-1.09,3.37-2.56,5.12-2.9Z"/>
    <path class="st0" d="M537.51,312.76c4.69-1.04,10.1,2.7,10.85,7.43.59,3.71.57,18.38-.15,21.95-1.96,9.66-15.93,9.49-17.5-.74-.54-3.51-.6-18.73.13-21.96.54-2.41,4.26-6.14,6.67-6.68Z"/>
    <path class="st1" d="M608.82,749.65h-17.77v-30.65c0-2.56-5.57-6.2-8.44-6.2-3.53-.01-9.32,3.62-9.32,7.09v29.76h-103.04v-70.62c0-34.9,39.08-64.1,72.44-62.67,30.87,1.32,66.13,30.44,66.13,62.67v70.62ZM579.25,678.78c-8.2,1.87-7.84,17.15,3.36,17.12,11.96-.03,11.47-20.49-3.36-17.12Z"/>
    <path class="st2" d="M452.48,749.65h-122.58c.76-31.46-5.34-61.89,16.85-87.52,24.57-28.39,67.24-32.52,96.37-8.39,1.54,1.27,10.2,9.63,10.67,10.65,1.42,3.07-1.15,9.9-1.35,13.72-1.27,23.42,1.02,48.01.03,71.55Z"/>
    <path class="st0" d="M540.41,388.1c3.3,5.7,8.92,22.55,13.37,26.17,5.44,4.41,24.48,4.24,31.94,5.82-6.34,9.2-22.6,16.19-22.23,28.82.11,3.8,5.34,24.42,4.46,25.36-7.8-2.36-20.49-12.81-28.11-13.02s-20.95,10.67-28.72,13.02c-.88-.94,4.35-21.56,4.46-25.36.37-12.63-15.89-19.61-22.23-28.82,8.1-1.65,24.58-1.09,31.04-5.83,5.76-4.23,9.93-18.64,14.05-25.01.56-.86-.1-1.59,1.98-1.14Z"/>
    <path class="st2" d="M579.25,678.78c14.83-3.38,15.32,17.08,3.36,17.12-11.21.03-11.56-15.25-3.36-17.12Z"/>
  </g>
  <circle class="st2" cx="399.3" cy="582.7" r="39.77"/>
  <circle class="st2" cx="539.42" cy="561.38" r="39.77"/>
  <circle class="st2" cx="679.99" cy="582.7" r="39.77"/>
</svg>