<?xml version="1.0" encoding="UTF-8"?>
<svg id="Layer_1" xmlns="http://www.w3.org/2000/svg" version="1.1" viewBox="0 0 1080 1080">
  <!-- Generator: Adobe Illustrator 29.5.1, SVG Export Plug-In . SVG Version: 2.1.0 Build 141)  -->
  <defs>
    <style>
      .st0 {
        fill: #c1121f;
      }

      .st1 {
        stroke: #053c5e;
        stroke-miterlimit: 10;
        stroke-width: 6px;
      }

      .st1, .st2 {
        fill: #053c5e;
      }
    </style>
  </defs>
  <path class="st1" d="M559,523.18h211.05c1.83,0,5.9,4.85,5.33,7.22-2.14,22.96,2.83,51.01-.1,73.35-.76,5.82-6.13,13.87-11.17,16.85-.81.48-7.18,3.04-7.59,3.04h-166.62v61.82h25.6c2.02,0,4.92,4.17,5.26,6.34.95,6.1.82,26.44.08,32.8-.39,3.32-1.71,5.51-4.8,6.79h-144.99c-2.59-1.06-4.29-3.12-4.72-5.9-1.01-6.43-.72-25-.1-31.86.25-2.76,2.17-8.16,5.36-8.16h25.6v-61.82h-166.62c-7.25,0-19.17-13.01-18.84-20.76l-.03-274.37c.93-11.38,10.32-20.8,21.73-21.73h217.42c2.63-.88,8.16,3.14,8.16,5.35v211.05ZM543.55,322.27h-210.09c-1.87,0-6.28,4.41-6.28,6.28v24.63h216.36v-30.91ZM543.55,368.63h-216.36v232.3c0,3.87,6.25,7.91,10.1,7.28h411.56c4.12.87,11.07-3,11.07-7.28v-62.3h-212.02c-.31,0-4.35-4.04-4.35-4.35v-165.65ZM535.82,623.63h-23.18v61.82h61.82v-61.82h-23.18v25.6c0,6.73-15.45,6.73-15.45,0v-25.6ZM605.37,700.9h-123.64v15.45h123.64v-15.45Z"/>
  <path class="st0" d="M638.69,345.45l28.01,27.02,42.62-49.12,21.01-1.03c8.39-23.66,43.65-18.59,45.08,6.19,1.52,26.22-35.73,34.52-44.62,9.36h-13.71s-32.51,38.49-32.51,38.49h23.18c10.45-29.99,54.7-11.73,42.52,16.92-8.27,19.45-35.97,18.11-43.12-1.53l-43.58-.67-30.67-30.18h-58.44v-15.45h64.23ZM750.97,322.41c-12.94,2.34-2.86,22.72,6.57,12.45,5.35-5.83-.69-13.51-6.57-12.45ZM727.78,376.51c-12.94,2.34-2.86,22.72,6.57,12.45,5.35-5.83-.69-13.51-6.57-12.45Z"/>
  <path class="st0" d="M574.46,499.99v-15.45h113.01l20.71-27.03c-12.63-26.51,23.29-48.83,40.15-24.66,13.02,18.68-7.22,42.83-28.05,34.79l-24.12,29.93-3.38,2.42h-118.32ZM727.78,438.32c-12.94,2.34-2.86,22.72,6.57,12.45,5.35-5.83-.69-13.51-6.57-12.45Z"/>
  <path class="st0" d="M574.46,399.54v-15.45h64.23l17.91,16.94c2.46,1.08,4.71-1.09,7.28-1.4,22.38-2.74,36.23,25.04,18.3,40.51-15.03,12.96-37.85,2.27-38.24-16.91-.09-4.43,1.83-7.08,1.55-11.09l-12.59-12.59h-58.44ZM665.97,415.14c-12.94,2.34-2.86,22.72,6.57,12.45,5.35-5.83-.69-13.51-6.57-12.45Z"/>
  <path class="st0" d="M638.21,329.99h-63.75v-15.45h63.75c10.1-29.32,53.78-12.7,42.77,16.21-7.54,19.79-36.64,19.46-42.77-.76ZM658.24,314.69c-12.94,2.34-2.86,22.72,6.57,12.45,5.35-5.83-.69-13.51-6.57-12.45Z"/>
  <path class="st0" d="M607.3,461.36h-32.84v-15.45h32.84c10.1-29.32,53.78-12.7,42.77,16.21-7.54,19.79-36.64,19.46-42.77-.76ZM627.33,446.05c-12.94,2.34-2.86,22.72,6.57,12.45,5.35-5.83-.69-13.51-6.57-12.45Z"/>
  <path class="st2" d="M528.09,554.09h30.91v15.45h-216.36v-15.45h15.45v-26.56c0-.31,4.04-4.35,4.35-4.35h26.56v-26.56c0-.31,4.04-4.35,4.35-4.35h26.56v-34.29c0-.31,4.04-4.35,4.35-4.35h26.56v-26.56c0-.31,4.04-4.35,4.35-4.35h26.56v-34.29c0-1.94,5.27-4.22,7.19-4.41,6.09-.6,28.48-.94,33.84.08,1.4.27,5.33,3.78,5.33,4.33v165.65ZM512.64,399.54h-15.45v154.55h15.45v-154.55ZM481.73,438.18h-15.45v115.91h15.45v-115.91ZM450.82,469.09h-15.45v85h15.45v-85ZM419.91,507.72h-15.45v46.36h15.45v-46.36Z"/>
  <rect class="st2" x="574.46" y="554.09" width="15.45" height="15.45"/>
</svg>