<?xml version="1.0" encoding="UTF-8"?>
<svg id="Layer_1" xmlns="http://www.w3.org/2000/svg" version="1.1" viewBox="0 0 1080 1080">
  <!-- Generator: Adobe Illustrator 29.5.1, SVG Export Plug-In . SVG Version: 2.1.0 Build 141)  -->
  <defs>
    <style>
      .st0 {
        fill: #ff8500;
      }

      .st1 {
        stroke: #ff8500;
      }

      .st1, .st2 {
        fill: none;
        stroke-miterlimit: 10;
        stroke-width: 14px;
      }

      .st2 {
        stroke: #053c5e;
      }

      .st3 {
        fill: #053c5e;
      }
    </style>
  </defs>
  <path class="st0" d="M398.2,460.67c34.27,32.88,91.98,19.57,107.42-25.26,17.75-51.54-27.86-99.58-80.18-85.1-48.58,13.44-63.46,75.62-27.24,110.36ZM635.06,347.85c-46.96,1.84-76.78,50.5-56.91,93.52,15.04,32.55,57.97,48.48,89.81,30.42,60.23-34.16,39.32-119.98-28.13-124.07l-4.77.14Z"/>
  <path class="st2" d="M629.15,491.04c50.32-2.52,121.05,8.8,124.61,71.43v139.78c-.96,14.02-10.05,24.82-23.72,27.94-3.7.84-11.34,2.47-12.19-2.89v-139.24c-1.36-5.44-7.98-5.89-10.4-1l-.83,141.37c-1.12,2.61-6.16,2.94-8.71,3.1-39.74,2.49-82.06-1.93-122.07,0-2.58-.54-5.77-.07-6.9-2.95l-.2-138.56c-.08-7.46-9.19-8.57-10.86-1.47l-.1,140.14c-.93,4.21-9.33,1.46-12.08.49-11.41-4.03-19.39-14.29-20.31-26.44-2.2-29.19,1.7-61.1,0-90.58,3.12-21.96-4.81-49.69,6.7-69.56,19.23-33.21,60.06-49.71,97.04-51.56Z"/>
  <path class="st1" d="M366.01,679.34h78.97c3.49,0,10.37-2.85,13.4-4.81,20.65-13.39,14.83-50.6-11-53.19-20.07-2.01-43.22,1.67-63.43-.04-2.17-.18-4.23-.48-5.27-2.61l-.4-43.39c-2.48-6.86-10.54-5.11-11.29,1.94.93,13.62-1.25,28.88,0,42.31.6,6.37,4.47,11.4,11.07,12.06,20.57,2.06,44.5-1.46,65.46-.01,20.76,1.44,22.35,29,5.05,36.09-32.32,1.93-65.09.31-97.56.83-13.7-1.5-22.97-13.58-24.38-26.79,1.23-57.87-12.33-118.64,53.03-144.81,4.84-1.94,19.4-7.07,24-7.04,2.34.01,10.06,4.92,13.05,6.18,19.84,8.35,44.93,8.65,61.99-5.88,3.99-3.4,7.3-9.96,12.11-11.02,13.76-3.02,32.55-1.95,46.66-1.52,16.64.51,34.14,1.02,50.64,2.99,1.74.21,12.56,1.41,12.6,3.14-5.75,2.07-11.73,3.52-17.47,5.65-32.15,11.91-66,38.06-68.16,75.02l-.21,162.66c-1.12,3.57-4.58,4.06-7.87,4.43h-132.4c-3.14.48-8.59-2.97-8.59-6.17v-46.01Z"/>
  <path class="st0" d="M398.2,460.67c-36.22-34.75-21.34-96.92,27.24-110.36,52.32-14.48,97.94,33.56,80.18,85.1-15.44,44.83-73.15,58.14-107.42,25.26Z"/>
  <path class="st3" d="M635.06,347.85l4.77-.14c67.46,4.09,88.36,89.91,28.13,124.07-31.85,18.06-74.77,2.13-89.81-30.42-19.87-43.02,9.94-91.68,56.91-93.52Z"/>
</svg>