<?xml version="1.0" encoding="UTF-8"?>
<svg id="Layer_1" xmlns="http://www.w3.org/2000/svg" version="1.1" viewBox="0 0 1080 1080">
  <!-- Generator: Adobe Illustrator 29.5.1, SVG Export Plug-In . SVG Version: 2.1.0 Build 141)  -->
  <defs>
    <style>
      .st0 {
        fill: #c1121f;
      }

      .st0, .st1 {
        stroke: #053c5e;
        stroke-miterlimit: 10;
      }

      .st1 {
        fill: #053c5e;
      }
    </style>
  </defs>
  <path class="st1" d="M604.94,402.77c1.23-1.36.91,3.35.97,3.85,3.45,27.03,21.25,49.96,46.15,60.63.6.42,1.27,1.55,1.44,2.24,1.05,4.04-.05,12.17.2,16.83.34,6.33,1.61,13.81,3.01,20.01.46,2.06,2.43,6.79,2.52,8.07.1,1.46-3.22,16.4-3.89,18.63-.16.52-.23,1.3-.69,1.61-13.13,2.19-26.23,4.81-39.42,6.6-6.06.82-13.28,2.09-19.27,2.36-10.18.47-18.1-4.63-27.6-7.37-20.06-5.77-39.5-5.2-59.39.92-8.48,2.61-14.71,6.81-23.95,6.47-7.85-.28-17.32-2.15-25.22-3.32-11.66-1.73-23.34-3.79-34.87-6.2l-4.02-19.28c2.67-9.04,4.95-18.57,5.47-28.04.23-4.22-.87-14.86.41-18,.74-1.83,5.51-3.25,7.54-4.43,22.5-12.97,38.81-35,39.91-61.59,3.24,4.34,6.05,9.05,9.65,13.13,28.46,32.25,81.29,33.05,110.71,1.61,3.83-4.09,8.25-9.63,10.36-14.73Z"/>
  <path class="st1" d="M648.2,643.03c.96,7.28,2.36,14.53,3.82,21.73,1.82,8.97,5.75,21.14,6.72,29.64.41,3.62-.25,5.98-3.52,7.89-4.66,2.72-15.11,6.04-20.59,7.95-14.14,4.93-28.62,7.64-42.58,12.19-9.51,3.1-14.03,9.46-22.25,14.11-15.54,8.8-43.23,8.89-58.9.29-4.98-2.73-8.89-6.79-13.52-9.96-9.37-6.39-29.38-9.6-41.01-13.3-4.59-1.46-9.16-3.08-13.69-4.72-3.67-1.33-18.17-6.34-20.02-8.52-1.58-1.87-1.57-4-1.26-6.33.83-6.16,3.48-14.09,4.8-20.51,2.08-10.11,4.14-20.25,5.67-30.47,22.8,7.14,45.76,14.31,69.41,18.27,23.01,3.85,44.74,4.42,67.91,1.47,27.04-3.44,53.19-11.4,78.99-19.73Z"/>
  <path class="st1" d="M653.26,543.15l-5.97,39.82c-23.65,5.51-47.46,11.15-71.64,13.97-25.61,2.98-51.21,2.54-76.74-.93-22.1-3.01-43.91-8.18-65.63-13.07-.6-.29-.81-.74-.93-1.37-.76-4.01-.85-9.07-1.46-13.27-1.21-8.32-2.54-16.65-4.08-24.91.02-.45.7-.24,1.1-.19,15.09,1.94,30.06,5.48,45.22,7.25,17.55,2.05,18.58,1,34.45-4.55,23.6-8.24,42.41-7.39,65.83.46,3.8,1.27,7.42,3.32,11.37,4.28,7.86,1.91,17.79.3,25.85-.65,14.28-1.67,28.48-4.38,42.63-6.84Z"/>
  <path class="st1" d="M646.82,591.48l-.94,11.72c-.19,10.55.37,21.07,1.21,31.56-30.08,9.94-61.17,19.4-93.02,21.61-36.65,2.55-73.62-6.6-108.28-17.36-1.79-.56-12.75-3.8-12.93-4.53l1.34-16.06c.03-9,.03-18-.94-26.94,22.43,4.53,44.75,9.86,67.49,12.82,22.57,2.94,44.9,3.54,67.59,1.44,26.54-2.45,52.52-8.69,78.47-14.26Z"/>
  <path class="st0" d="M621.37,360.99c3.22-.73,10.34,1.29,13.86,2.06,20.03,4.39,45,12.01,61.06,25.01,11.75,9.51,20.17,22.63,28.33,35.19,2.23,3.43,10.52,15.24,11.28,18.18,1.7,6.6-3.07,8.44-7.76,11.14-24.81,14.29-52.49,17.17-78.1,2.92-24.82-13.8-36.32-39.78-34.99-67.69.28-5.78,1.22-16.9,2.52-22.33.41-1.72,1.98-4.06,3.81-4.48Z"/>
  <path class="st0" d="M454.78,361.02c4.38-.46,6.95.76,7.81,5.28,1.19,6.25,2.17,16.03,2.44,22.42,2.78,65.21-64.52,96.43-116.89,61.66-3.69-2.45-5.12-4.59-3.82-9.27,14.22-22.07,27.12-47.27,50.72-60.66,13.97-7.92,43.84-17.75,59.74-19.42Z"/>
  <path class="st1" d="M527.06,337.09c17.17-.84,36.7.02,53.57,3.23,7.24,1.38,22.3,3.72,25.46,10.9,3.1,7.04.3,25.53-1.74,33.24-19.02,71.79-123.76,64.26-131.5-14.6-.81-8.29-2.28-20.74,7.04-24.72,11.49-4.9,34.49-7.44,47.18-8.06ZM586.49,365.52c-30.55-6.39-62.33-6.03-92.91,0,1.65,29.04,21.66,48.48,51.31,46.48,24.57-1.66,40.51-22.94,41.6-46.47Z"/>
  <path class="st0" d="M663.86,472.28c18.93,4.11,37.61,2.77,55.53-4.53,2.11-.86,11.99-6.16,13.05-5.87.69.19,1.39.87,1.75,1.49l21.27,37.67c.36,4-2.04,5.23-4.84,7.14-19.5,13.37-41.28,24.66-60.84,38.12-7.56,3.77-11.76-6.2-15.08-11.47-5.63-8.95-9.39-14.78-10.8-25.56-1.58-12.06-1.31-24.92-.05-36.98Z"/>
  <path class="st0" d="M416.23,472.27c1.03,12.14,1.45,24.41-.06,36.54-1.02,8.26-2.36,11.44-6.31,18.55-1.9,3.41-9.62,16.47-12.07,18.31-4.8,3.58-9.05-.24-13.28-2.77-17.69-10.59-37.91-22.85-54.77-34.52-4.81-3.33-6.83-4.43-3.8-10.62,5.62-11.48,14.34-22.7,19.94-34.37l1.76-1.5c1.28-.34,4.8,2.27,6.29,2.97,20.03,9.37,40.47,12.41,62.3,7.43Z"/>
  <path class="st1" d="M576.78,376.15c-.55,16.4-16.41,27.94-31.89,28.94s-30.29-3.05-38.36-16.91c-1-1.72-5.11-11.02-3.5-12.16,3.79-1.27,7.65-2.34,11.61-3.03,13.8-2.4,30.14-2.73,44.04-1.06,6.13.74,12.36,1.93,18.11,4.21Z"/>
</svg>