<?xml version="1.0" encoding="UTF-8"?>
<svg id="Layer_1" xmlns="http://www.w3.org/2000/svg" version="1.1" viewBox="0 0 1080 1080">
  <!-- Generator: Adobe Illustrator 29.5.1, SVG Export Plug-In . SVG Version: 2.1.0 Build 141)  -->
  <defs>
    <style>
      .st0 {
        fill: #ff8500;
      }

      .st1 {
        fill: #053c5e;
      }
    </style>
  </defs>
  <path class="st1" d="M660,311.15c9.21,2.82,16.26,9.38,17.85,19.18v167.74c-1.74,10.49-10.28,18.55-20.94,19.21h-225.74s-61.11,60.21-61.11,60.21c-8.06,7.24-20.54,4.32-23-6.48l-.21-53.76h-17.4c-.34,0-5.57-2.1-6.41-2.52-6.73-3.36-9.2-8.72-11.88-15.33v-170.41c3.11-9.45,8.39-14.73,17.84-17.84h331ZM396.81,395.9c-.29-1.44.37-1.85,1.44-2.56,8.48-5.56,21.32,13.07,31.57-1.44,12.42-17.59-17.32-27.37-30.77-26.31-30.08,2.38-41.4,39.67-13.87,53.99,5.28,2.74,23.34,8.26,25.96,11.53.63.79,1.23,1.24.43,2.27-2.86,3.6-7.15,4.02-11.43,3.36-9.47-1.46-13.38-11.74-23.18-10.3-13.17,1.95-14.3,16.61-5.15,25.24,18.13,17.1,55.32,17.12,64.94-9.13,10.19-27.8-18.59-40.44-39.94-46.65ZM482.45,392.34h20.07c1.22,0,6.17-4.01,7.09-5.4,6.82-10.28-1.26-20.44-12.41-21.4-6.88-.59-28.53-.8-34.1,1.65-3.63,1.59-6.96,5.44-7.44,9.51,1.75,24.11-2.24,51.27-.02,75.01.63,6.74,5.82,10.81,12.32,11.77,6.03.89,31,.98,35.9-1.1,7.6-3.23,10.28-13.2,5.75-20.03-.92-1.39-5.87-5.4-7.09-5.4h-20.07v-8.92h16.51c5.23,0,10.99-8.64,10.85-13.69s-5.84-13.08-10.85-13.08h-16.51v-8.92ZM568.8,365.82c-66.97,7.56-50.59,111.96,17.18,96.59,58.29-13.22,44.17-103.51-17.18-96.59Z"/>
  <path class="st0" d="M311.15,751c1.96-1.67,2.08-4.49,3.99-6.27.55-.51,5.91-3.55,6.27-3.55h16.51v-82.52c1.11-8.76,5.63-15.75,13.95-19.07,7.2-2.88,37.52-2.81,46.18-1.81,7.37.86,13.71,4.73,17.32,11.23.56,1.01,2.85,5.5,2.85,6.07v86.1h27.66v-146.76c0-6.06,9.3-14.54,14.97-16.26,7.22-2.18,35.89-1.95,44.4-1.18,8.86.81,20.93,9.87,20.93,19.22v144.98h26.77v-120c0-9.35,12.07-18.41,20.93-19.22s37.18-1,44.4,1.18c5.67,1.71,14.97,10.2,14.97,16.26v121.78h27.66v-181.56c0-.34,2.18-5.45,2.64-6.28,3.13-5.58,10.17-10.4,16.53-11.12,8.94-1.01,33.83-1.03,42.6.23,10.24,1.47,17.71,10.56,18.56,20.7l-.04,178.03h16.51c.61,0,6.29,3.51,7.1,4.49,7.01,8.44,1.9,20.81-8.87,22.29l-431.89.02c-6.88-.68-9.83-4.09-12.89-9.86v-7.14Z"/>
  <path class="st1" d="M329,311.15c-9.45,3.11-14.73,8.39-17.84,17.84v-17.84h17.84Z"/>
  <path class="st1" d="M570.55,392.56c30.77-4.81,35.55,41.1,6.83,44.29-29.53,3.28-34.05-40.03-6.83-44.29Z"/>
</svg>