<?xml version="1.0" encoding="UTF-8"?>
<svg id="Layer_2" xmlns="http://www.w3.org/2000/svg" viewBox="0 0 653.77 199.79">
  <defs>
    <style>
      .cls-1 {
        fill: #fff;
      }

      .cls-2 {
        fill: #c1121f;
      }

      .cls-3 {
        fill: #053c5e;
      }
    </style>
  </defs>
  <g id="Layer_1-2" data-name="Layer_1">
    <g>
      <path class="cls-1" d="M99.45,196.47c-6.59-.02-8.1-1.53-8.1-8.08v-105.27c0-2.56,0-5.13.02-7.69.03-6.23.05-12.67-.08-18.99-.15-6.98,4.48-7.91,7.98-8.01,1.2-.03,2.36-.04,3.52-.04s2.41.01,3.66.03c1.29.01,2.62.03,4.07.03,4.17,0,6.86,2,7.99,5.94.23.79.47,1.58.74,2.39,7.12-6.93,15.9-10.3,26.75-10.3,1.99,0,4.08.12,6.22.35,27.49,2.98,44.83,23.84,44.2,53.14-.41,19.05-7.1,32.86-20.45,42.19-8.71,6.09-18.15,9.18-28.06,9.18-4.38,0-8.85-.62-13.31-1.83-3.87-1.06-7.38-3.04-10.77-4.98v7.24c0,10.28,0,23.47,0,33.93v1.89c.03,3.51.05,5.63-1.6,7.29-1.59,1.6-3.8,1.6-5.58,1.6,0,0-2.39-.02-3.04-.02h-.71c-1.9.02-3.8.02-5.7.02-2.17,0-7.73-.02-7.73-.02ZM144.26,78.55c-11.93.01-20.02,8.11-20.14,20.15-.06,5.95,1.86,11.06,5.55,14.79,3.66,3.7,8.71,5.65,14.59,5.65,11.93,0,19.97-8.09,20.01-20.14.02-6.13-1.9-11.31-5.56-14.98-3.57-3.58-8.56-5.47-14.43-5.47v-3.31l-.02,3.31Z"/>
      <g>
        <path class="cls-3" d="M187.92,62.18c-8.46-10.6-20.68-17.05-35.34-18.64-2.26-.24-4.47-.37-6.58-.37-9.75,0-18.2,2.67-25.22,7.95-1.93-3.87-5.49-5.97-10.26-5.98-1.43,0-2.76-.01-4.03-.03-1.27-.01-2.48-.02-3.7-.02s-2.38.01-3.62.04c-9.96.27-11.29,7.25-11.2,11.38.14,6.27.11,12.69.08,18.9-.01,2.57-.02,5.14-.02,7.7v24.3c0,26.08,0,54.89,0,80.97,0,3.09,0,6.28,2.59,8.84,2.55,2.52,5.73,2.53,8.81,2.54h1.22c2.16,0,4.32.02,6.48.02,1.92,0,3.84,0,5.77-.02h.68c.64,0,1.23,0,1.75,0,.47,0,.91,0,1.3,0,2.01,0,5.36,0,7.92-2.58,2.62-2.63,2.59-5.88,2.57-9.65,0-.56,0-1.18,0-1.86.01-10.5,0-23.73,0-34.06v-1.54c2.07,1.04,4.25,1.96,6.59,2.6,4.74,1.29,9.51,1.95,14.18,1.95,10.61,0,20.69-3.29,29.96-9.78,14.08-9.85,21.43-24.93,21.86-44.83.32-14.69-3.76-27.78-11.8-37.86ZM193.11,99.89c-.35,16.05-5.43,30.03-19.04,39.56-8.1,5.66-16.92,8.58-26.17,8.58-4.07,0-8.23-.57-12.44-1.71-5.19-1.42-9.84-4.8-14.95-7.39,0,14.35.01,31.92,0,46.77,0,6.92.49,7.48-3.87,7.48-.83,0-1.84-.02-3.05-.02-.23,0-.48,0-.73,0-1.91.01-3.81.02-5.72.02-2.56,0-5.12,0-7.68-.02-4.74-.01-4.8-.07-4.8-4.77,0-34.18,0-71.09,0-105.27,0-8.92.13-17.84-.06-26.75-.08-3.61,1.21-4.53,4.76-4.63,1.18-.03,2.31-.04,3.44-.04,2.43,0,4.86.05,7.72.05,2.74,0,4.11,1.07,4.82,3.54.72,2.49,1.6,4.93,2.54,7.77.95-1.04,1.67-1.84,2.41-2.62,7.2-7.71,15.99-10.66,25.72-10.66,1.92,0,3.88.11,5.87.33,26.8,2.9,41.81,23.67,41.25,49.78Z"/>
        <ellipse class="cls-3" cx="144.52" cy="98.83" rx="24.22" ry="24.17"/>
      </g>
      <path class="cls-1" d="M419.63,149.13c-7.36,0-12.09-2.3-16.31-7.95-5.33-7.14-11.13-14.15-16.74-20.94-1.54-1.87-3.09-3.74-4.62-5.61v1.64c-.02,8.37-.04,17.02.04,25.52.02,1.55-.15,3.81-1.79,5.47-1.2,1.21-2.84,1.8-5.03,1.8h-.44c-2.25-.08-4.5-.1-6.75-.1-1.61,0-3.22.01-4.83.02-1.62.01-3.25.02-4.87.02h-.21c-6.83,0-8.31-1.45-8.34-8.17-.05-14.62-.09-29.25-.12-43.87-.05-29.37-.1-56.04-.15-85.41,0-6.54,1.57-8.14,8.05-8.17h.92c1.55,0,3.1.01,4.66.02,1.53.01,3.07.03,4.6.03,2.52,0,4.57-.03,6.46-.11.21,0,.41-.01.6-.01,2.33,0,4.07.61,5.32,1.87,1.73,1.73,1.94,4.13,1.93,6.02-.09,18.93-.08,35.48-.07,54.1v12.9s1.62-2.2,1.62-2.2c5.51-7.53,11.66-15.76,17.18-23.47,2.09-2.92,4.65-4.28,8.07-4.28h.22c3.57.06,7.14.08,10.71.08l11.02-.02h2.8c.52,0,1.12.02,1.8.04l1.05.03c1.64.04,3.11.98,3.84,2.45.73,1.47.57,3.21-.4,4.54-.84,1.15-1.6,2.16-2.24,2.99l-5.14,6.64c-7.72,9.98-16.16,20.74-24.15,30.79-.3.38-.45.63-.52.76.08.15.27.44.69.94,9.84,11.58,19.74,23.44,29.32,34.9l5.85,7.01c.49.59.97,1.21,1.58,2.02l.42.55c1.02,1.33,1.19,3.09.45,4.6-.74,1.51-2.24,2.45-3.91,2.46l-8.6.04c-4.65.02-9.12.04-13.61.08h-.36Z"/>
      <path class="cls-3" d="M374.77,6.61c3.1,0,3.96,1.36,3.94,4.57-.12,24.78-.06,46.87-.06,71.65v5.23c1.37-1.75,2.16-2.7,2.89-3.7,7.16-9.81,14.82-20.04,21.89-29.91,1.41-1.97,2.94-2.89,5.38-2.89.05,0,.11,0,.17,0,3.59.06,7.18.08,10.77.08s7.35-.02,11.03-.02c.93,0,1.85,0,2.78,0,.75,0,1.68.04,2.79.06.87.02,1.37,1.02.85,1.73-.82,1.13-1.56,2.11-2.19,2.92-9.57,12.35-19.54,25.18-29.27,37.4-1.89,2.38-1.59,3.75.24,5.9,11.8,13.89,23.46,27.9,35.15,41.88.57.68,1.12,1.42,1.9,2.45.54.71.03,1.74-.86,1.74-7.87.05-15.03.05-22.22.12-.11,0-.22,0-.33,0-6.1,0-9.99-1.71-13.66-6.63-7.56-10.12-15.82-19.72-23.8-29.54-.92-1.13-1.87-2.25-3.27-3.93-.11,1.69-.24,2.71-.24,3.74-.01,10.78-.08,21.56.03,32.34.03,2.74-.8,3.93-3.52,3.93-.11,0-.22,0-.33,0-2.28-.07-4.57-.09-6.85-.09-3.23,0-6.46.04-9.69.04-.07,0-.15,0-.22,0-5,0-5.01,0-5.03-4.87-.05-14.62-.09-29.24-.12-43.87-.06-29.37-.1-56.04-.15-85.41,0-4.69.14-4.84,4.75-4.85.3,0,.59,0,.89,0,3.09,0,6.19.05,9.28.05,2.2,0,4.39-.03,6.59-.11.16,0,.32,0,.47,0M374.77,0c-.24,0-.48,0-.73.01-1.85.07-16.52.06-16.52.06-2.92,0-6.23.02-8.81,2.66-2.54,2.59-2.53,5.76-2.53,8.82.04,29.37.09,56.04.15,85.41.03,14.62.07,29.25.12,43.87.01,3.31.02,6.44,2.67,8.99,2.55,2.46,5.53,2.46,8.97,2.47h.22c1.63,0,3.26-.01,4.89-.02,1.6-.01,3.2-.02,4.8-.02,2.59,0,4.7.03,6.64.09.18,0,.36,0,.54,0,3.08,0,5.56-.93,7.38-2.78,2.8-2.83,2.76-6.59,2.75-7.83-.06-5.95-.07-11.98-.06-17.94,5.2,6.3,10.53,12.79,15.43,19.34,4.79,6.42,10.64,9.28,18.96,9.28h.39c4.46-.05,8.91-.06,13.53-.08,2.81-.01,5.69-.02,8.67-.04,2.94-.02,5.57-1.67,6.86-4.31,1.3-2.64.99-5.73-.79-8.06l-.42-.56c-.59-.78-1.11-1.46-1.66-2.12l-5.95-7.12c-9.23-11.05-18.77-22.47-28.26-33.66,7.65-9.63,15.72-19.93,23.09-29.46l5.15-6.65c.66-.85,1.43-1.88,2.3-3.06,1.7-2.32,1.97-5.37.7-7.95-1.27-2.58-3.85-4.23-6.73-4.3l-1.03-.03c-.72-.02-1.35-.04-1.89-.04h-2.8c-1.84,0-3.69,0-5.53,0-1.83,0-3.67,0-5.5,0-4.3,0-7.59-.02-10.66-.07h-.28c-4.51,0-8.03,1.85-10.75,5.65-4.07,5.68-8.68,11.85-12.8,17.48,0-1.02,0-2.04,0-3.06,0-18.52-.02-34.97.07-53.79.01-2.33-.28-5.74-2.89-8.37-1.88-1.89-4.46-2.84-7.66-2.84h0Z"/>
      <path class="cls-1" d="M246.74,151.29c-15.39,0-30.78-7.16-39.21-18.23-15.16-19.92-14.09-52.33,2.32-70.76,8.52-9.57,23.08-15.76,37.08-15.76,5.14,0,9.93.82,14.25,2.45,4.15,1.56,7.84,4.06,11.4,6.48.47.32.94.64,1.42.96,3-7.47,5.12-8.13,15.2-8.13,13.08,0,14.58,1.48,14.58,14.39,0,0,0,58.51,0,78.02,0,6.69-1.64,8.33-8.34,8.34h-.23c-1.25,0-2.5-.01-3.75-.03-1.23-.01-2.45-.03-3.68-.03-1.91,0-3.47.03-4.9.1-.24.01-.48.02-.71.02-4.14,0-6.83-2.13-7.79-6.15-.13-.53-.28-1.07-.45-1.61-6.73,6.44-16.2,9.94-27.19,9.94ZM249.26,79.18c-12.11,0-19.94,7.81-19.97,19.9-.01,5.76,1.98,10.93,5.6,14.56,3.59,3.59,8.68,5.57,14.34,5.57,12.23-.06,20.39-8.09,20.41-19.99.02-11.74-8.3-19.98-20.23-20.05h-.16Z"/>
      <g>
        <path class="cls-3" d="M249.43,75.87c-.06,0-.12,0-.18,0-13.87,0-23.25,9.34-23.27,23.21-.02,13.68,9.67,23.45,23.25,23.45.05,0,.09,0,.14,0,13.85-.07,23.55-9.65,23.58-23.29.02-13.59-9.73-23.28-23.51-23.36Z"/>
        <path class="cls-3" d="M307.1,62.67c0-6.68,0-11.09-3.39-14.42-3.35-3.29-7.55-3.29-14.51-3.29-5.96,0-9.56,0-12.93,2.33-1.6,1.11-2.73,2.47-3.68,4.17-3.16-2.11-6.47-4.16-10.24-5.59-4.69-1.77-9.88-2.66-15.42-2.66h0c-14.9,0-30.43,6.62-39.56,16.87-17.4,19.55-18.54,53.88-2.48,74.99,9.17,12.06,25.21,19.54,41.85,19.54,9.76,0,18.66-2.73,25.6-7.68,1.9,3.53,5.35,5.41,9.82,5.41.28,0,3.71.01,5.56.01,1.21,0,2.47-.04,3.69-.02,1.26.01,2.52.03,3.78.03h.24c3.15,0,6.41,0,9.02-2.61,2.64-2.62,2.64-5.89,2.64-9.05,0-19.46,0-38.92,0-58.37v-19.65ZM300.45,140.69c0,4.89-.14,5.01-5.02,5.02-.08,0-.16,0-.23,0-2.47,0-4.94-.05-7.41-.05-1.69,0-3.38.02-5.07.11-.19,0-.37.01-.54.01-2.49,0-3.93-.95-4.56-3.59-.54-2.28-1.47-4.47-2.22-6.69-.38.06-.71.02-.81.15-6.5,8.48-16.95,12.32-27.85,12.32-13.83,0-28.39-6.18-36.56-16.92-14.05-18.46-13.25-49.24,2.16-66.54,8.06-9.05,21.79-14.65,34.6-14.65,4.58,0,9.03.71,13.07,2.24,5.53,2.08,10.32,6.1,15.61,9.33-.03.07-.04.1-.04.1,0,0,.18-.34.31-.7q3.33-9.2,13.31-9.2,11.25,0,11.25,11.07c0,26.01,0,52.01,0,78.02Z"/>
      </g>
      <path class="cls-1" d="M57.85,151.32c-6.98,0-14.23-.92-22.16-2.82-10.68-2.56-20.33-6.88-28.67-12.86-4.02-2.88-4.75-6.46-2.16-10.63,2.19-3.53,4.25-7.26,6.25-10.87.91-1.65,1.82-3.3,2.75-4.94,1.59-2.82,2.85-5.04,5.74-5.04,1.7,0,3.03.86,5.03,2.17l.29.19c11.36,7.41,22.05,11.01,32.69,11.01h0c2.7,0,5.44-.23,8.16-.7,2.72-.46,5.64-1.62,8-3.18,2.61-1.73,4.07-4.16,3.99-6.69-.07-2.33-1.44-4.39-3.87-5.8-4.54-2.64-10.01-4.26-15.3-5.82l-1.34-.4c-3.22-.96-6.62-1.75-9.9-2.51-4.53-1.05-9.22-2.14-13.75-3.73C13.14,81.51,3.06,67.5,3.64,47.03,4.2,26.96,15.89,11.68,34.9,6.17c5.89-1.71,11.04-2.76,18.53-2.76,1.47,0,3.04.04,4.66.13,12.51.9,27.05,2.92,40.63,11.15,6.58,3.99,7.23,6.06,4.13,13.03-.67,1.52-1.37,3.02-2.06,4.53-1.6,3.49-3.26,7.11-4.63,10.7-1.27,3.34-3.22,5.03-5.8,5.03-1.83,0-3.5-.94-4.88-1.86-8.73-5.79-18.31-8.73-28.48-8.73-.95,0-1.9.03-2.86.07-5.82.3-10.1,1.7-13.47,4.39-2.49,1.99-3.78,4.64-3.45,7.1.28,2.12,1.76,3.87,4.17,4.92,4.75,2.08,9.76,3.48,15.06,4.97,3.01.85,6.13,1.72,9.18,2.73,1.5.5,3.02.98,4.53,1.47,6.09,1.96,12.39,3.98,18.32,6.79,15.15,7.2,23.04,20.24,22.82,37.72-.21,16.6-8.37,29.37-23.58,36.94-9.23,4.59-19,6.83-29.86,6.83Z"/>
      <path class="cls-2" d="M538.31,68.44v-.84c-.02-6.91-.04-12.74-.01-15.82,0-.84.03-3.38-1.87-5.17-1.77-1.67-4.06-1.67-5.16-1.67h-3.85c-3.69.01-6.86.02-9.79,0-1.21-.02-3.76-.04-5.66,1.73-1.84,1.71-2.04,4.05-2.03,5.66.1,18.55.07,37.73.03,55.35,0,2.57-.18,4.6-.54,6.4-1.26,6.25-6.36,10.56-13,10.97-8.17.52-14.05-2.8-16.1-9.08-.82-2.52-1.26-5.47-1.28-8.78-.13-17.39-.13-35.52,0-54.79.01-1.64-.19-4.01-2.05-5.74-1.84-1.71-4.26-1.69-5.84-1.7-3.18,0-6.24,0-9.18,0h-4.18c-1.12,0-3.45,0-5.24,1.69-1.26,1.2-1.9,2.9-1.89,5.06.03,8.06.03,16.45.03,24.51v1.15c0,10.53,0,21.07.05,31.6.06,10.84,2.85,19.69,8.51,27.05,7.92,10.29,21.23,16.43,35.62,16.43,6.11,0,12-1.12,17.5-3.32,16.1-6.45,24.74-18.8,25.71-36.71.37-6.86.3-28.45.25-43.98Z"/>
      <path class="cls-1" d="M328.87,149.34c-.24,0-.5,0-.76-.02-2.69-.13-5.44-.2-8.19-.2s-5.55.07-8.33.2c-.26.01-.51.02-.75.02-2.34,0-4.09-.61-5.35-1.88-1.75-1.75-1.94-4.22-1.93-5.93.05-12.06,0-24.34-.06-36.2-.02-4.86-.04-9.72-.06-14.59-.03-11.34-.06-22.67-.08-34.01,0-3.15,0-5.22,1.67-6.85,1.62-1.57,3.62-1.61,6.92-1.61,2.72,0,5.44-.25,8.16-.28h1.01c4.67,0,7.36,1.8,9.15,5.65,4.82-3.49,10.83-6.67,17.97-6.86.41-.01.81-.02,1.22-.02,4.89,0,9.74.74,14.43,1.45l2.61.39c1.53.22,3.04,1.24,3.95,2.65.88,1.36,1.13,2.99.72,4.59-1.26,6.2-2.76,12.43-4.21,18.46l-.72,3c-.68,2.84-2.67,4.54-5.32,4.54-.82,0-1.7-.16-2.68-.5-2.88-.97-5.44-1.66-7.82-2.1-.9-.17-1.78-.25-2.62-.25-3.57,0-6.68,1.48-9.51,4.53-1.58,1.71-2.25,3.44-2.23,5.77.07,8.63.07,17.39.07,25.86,0,8.55,0,17.39.07,26.07.02,1.97-.19,4.45-1.94,6.22-1.27,1.28-3.02,1.9-5.38,1.9Z"/>
      <path class="cls-3" d="M349.54,49.83c5.51,0,11.07,1,16.56,1.8.82.12,2.46,1.28,1.91,3.18-1.46,7.19-3.21,14.31-4.92,21.45-.34,1.42-1.05,1.99-2.09,1.99-.47,0-1.01-.12-1.62-.32-2.7-.92-5.48-1.71-8.28-2.22-1.11-.21-2.18-.31-3.22-.31-4.61,0-8.59,1.97-11.95,5.6-2.1,2.27-3.14,4.79-3.12,8.06.15,17.31-.01,34.62.14,51.94.03,3.31-.78,4.76-3.99,4.76-.19,0-.39,0-.6-.02-2.78-.14-5.56-.2-8.35-.2-2.83,0-5.67.07-8.49.2-.21,0-.4.01-.59.01-3.01,0-3.97-1.25-3.96-4.46.07-16.94-.07-33.88-.12-50.81-.04-11.33-.06-22.38-.08-33.72,0-5.08,0-5.12,5.27-5.13,3,0,5.99.02,8.97,0,.07,0,.13,0,.2,0,3.64,0,5.22.56,6.59,4.29.33.98.54,1.83,1.05,3.14,5.9-4.89,12.24-9.01,19.56-9.2.38,0,.76-.01,1.14-.01M349.54,43.18c-.44,0-.87,0-1.31.02-6.55.17-12.26,2.92-16.9,5.81-2.34-2.77-5.62-4.04-10.12-4.04h-.25s-.94,0-.94,0c-2.66.02-5.32-.01-7.98,0-3.56,0-6.63.05-9.22,2.55-2.7,2.61-2.7,5.83-2.69,9.25.02,11.34.04,22.39.08,33.73.02,4.86.04,9.72.06,14.57.05,11.87.11,24.14.06,36.19,0,1.32-.02,5.35,2.9,8.29,1.89,1.9,4.44,2.81,7.67,2.81.29,0,6.27-.01,8.96-.01s8.86,0,9.16,0c3.24,0,5.8-.92,7.69-2.84,2.65-2.67,2.93-6.18,2.91-8.59-.08-8.66-.07-17.49-.07-26.03,0-8.49,0-17.26-.07-25.91-.01-1.49.34-2.4,1.34-3.48,2.88-3.11,5.41-3.46,7.07-3.46.64,0,1.32.07,2.01.19,2.23.41,4.64,1.06,7.36,1.98,1.34.45,2.56.67,3.75.67,4.23,0,7.51-2.72,8.56-7.09l.72-3c1.45-6.03,2.94-12.26,4.21-18.48.62-2.48.21-5-1.16-7.14-1.42-2.19-3.82-3.78-6.27-4.14-.86-.13-1.73-.26-2.6-.39-4.81-.73-9.79-1.48-14.92-1.48h0Z"/>
      <path class="cls-2" d="M556.78,199.76c-6.59-.02-8.1-1.53-8.1-8.08v-112.01c0-2.56,0-5.13.02-7.69.03-6.23.05-12.67-.08-18.99-.15-6.98,4.48-7.91,7.98-8.01,1.2-.03,2.36-.04,3.52-.04s2.41.01,3.66.03c1.29.01,2.62.03,4.07.03,4.17,0,6.86,2,7.99,5.94.23.79.47,1.58.74,2.39,7.12-6.93,15.9-10.3,26.75-10.3,1.99,0,4.08.12,6.22.35,27.49,2.98,44.83,23.84,44.2,53.14-.41,19.05-7.1,32.86-20.45,42.19-8.71,6.09-18.15,9.18-28.06,9.18-4.38,0-8.85-.62-13.31-1.83-3.87-1.06-7.38-3.04-10.77-4.98v7.24c0,10.28,0,30.21,0,40.67v1.89c.03,3.51.05,5.63-1.6,7.29-1.59,1.6-3.8,1.6-5.58,1.6,0,0-2.39-.02-3.04-.02h-.71c-1.9.02-3.8.02-5.7.02-2.17,0-7.73-.02-7.73-.02ZM601.6,75.11c-11.93.01-20.02,8.11-20.14,20.15-.06,5.95,1.86,11.06,5.55,14.79,3.66,3.7,8.71,5.65,14.59,5.65,11.93,0,19.97-8.09,20.01-20.14.02-6.13-1.9-11.31-5.56-14.98-3.57-3.58-8.56-5.47-14.43-5.47h-.02Z"/>
      <path class="cls-3" d="M91.53,67.64l1.07-16.64c2.24-.61,4.94-2.33,6.67-6.87,1.33-3.49,2.89-6.89,4.54-10.48.7-1.53,1.4-3.05,2.08-4.58,1.45-3.26,2.82-6.34,1.7-9.94-1.13-3.65-4.19-5.5-7.15-7.29C86.26,3.23,71.23,1.13,58.39.22h-.07s-.07,0-.07,0c-1.68-.09-3.31-.13-4.83-.13h0c-7.86,0-13.46,1.16-19.45,2.9C13.5,8.91.92,25.34.31,46.94c-.61,21.77,10.51,37.29,32.18,44.9,4.7,1.65,9.48,2.76,14.09,3.83,3.38.79,6.58,1.53,9.7,2.46l1.35.4c5.34,1.58,10.38,3.07,14.57,5.51.99.57,2.17,1.56,2.21,3.02.04,1.33-.9,2.75-2.5,3.82-1.98,1.31-4.43,2.29-6.72,2.68-2.53.43-5.09.65-7.6.65-9.97,0-20.06-3.43-30.87-10.47l-.28-.19c-2.23-1.46-4.16-2.72-6.85-2.72-4.83,0-6.94,3.73-8.64,6.73-.93,1.65-1.85,3.31-2.77,4.97-2.07,3.74-4.02,7.27-6.17,10.73-3.52,5.68-2.41,11.18,3.05,15.1,8.69,6.22,18.73,10.73,29.83,13.39,8.19,1.96,15.7,2.92,22.94,2.92,11.23,0,21.77-2.41,31.34-7.18,16.41-8.16,25.2-21.95,25.43-39.88.23-18.23-7.74-32.01-23.09-39.96ZM86.22,141.51c-9.22,4.58-18.72,6.48-28.37,6.48-7.07,0-14.22-1.02-21.39-2.73-9.91-2.37-19.16-6.35-27.51-12.33-2.52-1.81-2.97-3.42-1.27-6.17,3.22-5.19,6.06-10.61,9.07-15.92,1.33-2.34,1.91-3.35,2.84-3.35.75,0,1.73.66,3.5,1.82,10.69,6.98,22.06,11.55,34.51,11.55,2.85,0,5.75-.24,8.72-.75,3.22-.55,6.55-1.88,9.27-3.69,7.23-4.78,7.42-13.81-.04-18.15-5.28-3.07-11.44-4.77-17.37-6.54-7.76-2.31-15.88-3.52-23.49-6.19-19.24-6.75-28.26-19.64-27.73-38.42.5-17.7,10.39-32.4,28.86-37.76,5.55-1.61,10.47-2.63,17.6-2.63,1.4,0,2.89.04,4.49.12,14.12,1.01,27.01,3.35,39.08,10.67,5.17,3.14,5.21,3.46,2.82,8.83-2.28,5.12-4.76,10.17-6.76,15.4-.78,2.04-1.6,2.88-2.69,2.88-.82,0-1.8-.48-3.04-1.3-9.23-6.12-19.36-9.28-30.32-9.28-1,0-2.01.03-3.03.08-5.57.29-10.9,1.53-15.38,5.11-6.73,5.37-6.38,14.25,1.46,17.67,7.82,3.41,16.37,5.12,24.53,7.81,7.56,2.5,15.31,4.7,22.46,8.11,14.4,6.85,21.12,18.79,20.92,34.67-.2,15.82-7.86,27.09-21.74,34Z"/>
    </g>
  </g>
</svg>