<?xml version="1.0" encoding="UTF-8"?>
<svg id="Layer_1" xmlns="http://www.w3.org/2000/svg" version="1.1" viewBox="0 0 1080 1080">
  <!-- Generator: Adobe Illustrator 29.5.1, SVG Export Plug-In . SVG Version: 2.1.0 Build 141)  -->
  <defs>
    <style>
      .st0 {
        fill: #fff;
      }

      .st1 {
        fill: #c1121f;
      }

      .st2 {
        fill: #053c5e;
      }
    </style>
  </defs>
  <path class="st2" d="M374.2,642.02c-7.42-1.24-13.52-9.47-13.88-16.84l.54-222.27c1.88-6.07,5.73-10.23,11.8-12.18l94.2-.7,19.99-28.14c2.28-2.46,6.06-2.61,8.62-.39l22.55,26.93c6.57-4.24,9.34-7.42,17.89-6.7,6.73.57,9.32,4.14,13.42,8.34l119.04-.06c5.7-.32,15.34,8.67,15.34,13.88v28.12h21.33c.32,0,5.25,1.98,5.88,2.36,4.24,2.51,8.19,8.85,8.72,13.76l.03,201.04c-.74,8.55-7.56,15.92-16.12,16.85l-112.22-.07c-11.6-2.33-17-12.63-15.41-23.94h-17.96v42h45.29c3.09,0,8.93,4.59,10.83,7.14,8.44,11.29,1.93,25.67-11.01,28.68l-165.28.21c-17.45-.82-24.41-23.45-9.13-33.21.95-.61,5.52-2.82,6.17-2.82h51.27v-42h-111.91ZM525.78,397.54l7.11,9.72c3.25-3.31,8.47-5.31,5.81-11.06-2.5-5.39-9.79-1.07-12.91,1.34ZM457.66,402.02h-81.22c-.88,0-4.12,3.24-4.12,4.12v175.88h203.6v-135.38c0-4.9,9.72-14.62,14.6-14.62h81.22v-25.88c0-1.42-3.76-4.59-5.6-4.14l-114.95.36c-1.66,6.76-6.43,9.47-10.38,14.17l21.95,26.8c1.63,2.34,1.18,5.37-.72,7.4-1.88,2.01-14.29,6.86-17.79,8.42-24.58,11.02-49.64,20.96-74.09,32.27-.87.4-1.81.61-2.77.6-.56.6,1.73,3.39,2.26,4.1,5.33,7.13,24.37,26.74,25.37,33.83,2.07,14.77-11.11,25.92-24.91,19.71-7.82-3.51-23.15-26.37-30.43-34.05-.43-.46-.6-1.21-.81-1.8-2.7.49-4.56,2.52-7.21,3.53-20.65,7.88-41.59-8.34-39.86-30.19,1.44-18.23,20.57-25.54,31.81-37.13l34.05-48.01ZM425.96,463.59c-10.24,9.46-31.8,19.39-20.88,36.5,5.03,7.88,14.41,9.81,22.67,5.84,2.16-1.04,19.79-14.67,20.12-15.91.23-.86-.03-1.55-.64-2.15-3.3-2.54-19.08-24.67-21.27-24.28ZM707.67,474.02h-119.77v150h119.77v-150ZM514.34,606.18c-5.51,1.23-5.77,9.87-.57,11.5,2.21.69,12.81.69,15.34.29,6.21-.97,6.56-9.94,1.21-11.62-2.16-.68-13.65-.7-15.97-.18Z"/>
  <path class="st0" d="M514.34,606.18c2.32-.52,13.82-.5,15.97.18,5.35,1.68,5,10.65-1.21,11.62-2.53.4-13.13.4-15.34-.29-5.2-1.63-4.93-10.27.57-11.5Z"/>
  <path class="st0" d="M525.78,397.54c3.12-2.41,10.42-6.73,12.91-1.34,2.66,5.75-2.55,7.75-5.81,11.06l-7.11-9.72Z"/>
  <path class="st1" d="M614.66,504.21c19.17-3.03,45.06,1.9,64.95-.19,8.25,1.08,15.03,7.89,16.09,16.12-1.46,18.38,1.94,39.74,0,57.76-.88,8.13-7.98,15.24-16.09,16.12-19.83,2.16-43.4-1.62-63.64,0-8.25-1.08-15.03-7.89-16.09-16.12,1.68-18.28-2.26-40.65.07-58.44.91-6.97,7.75-14.16,14.71-15.26ZM634.11,526.67c-2.24.49-3.9,2.55-4.24,4.77-.96,6.18-.81,28-.06,34.47.73,6.31,5.99,6.61,10.74,3.97,4.76-2.65,19.03-12.48,22.92-16.04,2.95-2.7,3.31-6.31.42-9.33-2.43-2.54-19.69-14.34-23.34-16.36-2.25-1.25-3.68-2.09-6.43-1.49Z"/>
  <path class="st0" d="M634.11,526.67c2.75-.6,4.18.23,6.43,1.49,3.65,2.03,20.91,13.82,23.34,16.36,2.89,3.02,2.53,6.63-.42,9.33-3.89,3.55-18.16,13.39-22.92,16.04-4.75,2.64-10,2.34-10.74-3.97-.75-6.47-.9-28.29.06-34.47.35-2.22,2-4.28,4.24-4.77Z"/>
</svg>