<?xml version="1.0" encoding="UTF-8"?>
<svg id="Layer_1" xmlns="http://www.w3.org/2000/svg" version="1.1" viewBox="0 0 1080 1080">
  <!-- Generator: Adobe Illustrator 29.5.1, SVG Export Plug-In . SVG Version: 2.1.0 Build 141)  -->
  <defs>
    <style>
      .st0 {
        fill: #c1121f;
      }

      .st1 {
        fill: #053c5e;
      }
    </style>
  </defs>
  <path class="st1" d="M527.74,744c-139.16-9.97-230.01-151.55-175.23-282.62,43.94-105.15,168.52-152.96,272.64-106.21l-29.2,29.49-1.18,3.21c-64.46-23.38-137.07-3.46-180.39,49.16-75.01,91.12-31.03,228.4,81.42,260.27,109.41,31.01,216.16-59.21,205.99-171.65-1.2-13.22-4.43-26.19-7.18-39.12l29.14-28.36c.7-.91.93-1,1.6,0,2.22,3.35,5.32,12.22,6.8,16.35,45.25,125.98-48.83,261.79-180.46,269.49h-23.95Z"/>
  <path class="st1" d="M590.81,428.63l-.75,2.82-29.59,29.48c-2.85,1.31-16.51-1.9-21.06-1.9-65.12.07-103.69,74.9-66.13,128.25,44.76,63.6,143.52,33.94,147.92-43.26.48-8.48-1.15-16.24-1.28-24.43l25.95-28.35,3.55-1.21c4.05,7.9,7.4,16.4,9.38,25.1,17.66,77.6-46.13,151.38-125.1,147.46-94.51-4.7-148.63-112.66-94.43-191.12,34.02-49.24,96.51-64.98,151.55-42.85Z"/>
  <path class="st0" d="M742.52,408.66l-58.3,58.67c-14.38,2.18-29.96,1.68-44.23,3.68-1.64.23-3.24.76-4.5,1.89l-56.27,56.35c.22,5.08,1.65,9.13,1.2,14.73-4,49-77.64,48.81-81.41,0-2.27-29.38,24.58-47.37,51.87-44.72l56.7-56.67c.87-.93,1.36-1.98,1.55-3.24,2.3-14.74,1.04-31.23,4.5-45.8l56.23-57.55v53.89l18.76,18.76h53.89Z"/>
</svg>