<svg width="250" height="250" viewBox="0 0 250 250" fill="none" xmlns="http://www.w3.org/2000/svg">
<path d="M44.9899 158.844C42.6715 158.837 42.1403 158.308 42.1403 156.013V119.13C42.1403 118.233 42.1403 117.332 42.1473 116.435C42.1579 114.252 42.1649 111.996 42.1192 109.782C42.0664 107.336 43.6952 107.01 44.9266 106.975C45.3487 106.965 45.7568 106.961 46.1649 106.961C46.573 106.961 47.0128 106.965 47.4525 106.972C47.9064 106.975 48.3743 106.982 48.8844 106.982C50.3514 106.982 51.2978 107.683 51.6953 109.064C51.7762 109.34 51.8606 109.617 51.9556 109.901C54.4605 107.473 57.5493 106.292 61.3664 106.292C62.0665 106.292 62.8018 106.334 63.5547 106.415C73.2258 107.459 79.3261 114.768 79.1045 125.033C78.9602 131.708 76.6067 136.546 71.9101 139.815C68.8458 141.949 65.5248 143.032 62.0384 143.032C60.4975 143.032 58.9249 142.814 57.3559 142.391C55.9944 142.019 54.7595 141.325 53.5669 140.646V143.182C53.5669 146.784 53.5669 151.405 53.5669 155.07V155.733C53.5775 156.962 53.5845 157.705 53.004 158.287C52.4446 158.847 51.6672 158.847 51.0409 158.847C51.0409 158.847 50.2001 158.84 49.9715 158.84H49.7217C49.0532 158.847 48.3848 158.847 47.7164 158.847C46.953 158.847 44.9969 158.84 44.9969 158.84L44.9899 158.844ZM60.7543 117.528C56.5573 117.532 53.7111 120.37 53.6689 124.588C53.6478 126.673 54.3233 128.463 55.6215 129.77C56.9091 131.067 58.6857 131.75 60.7543 131.75C64.9513 131.75 67.7799 128.915 67.7939 124.693C67.801 122.546 67.1255 120.731 65.8379 119.445C64.5819 118.191 62.8264 117.528 60.7613 117.528V116.369L60.7543 117.528Z" fill="white"/>
<path d="M76.1141 111.793C73.1379 108.079 68.8388 105.819 63.6813 105.262C62.8862 105.178 62.1088 105.132 61.3664 105.132C57.9363 105.132 54.9636 106.068 52.4939 107.918C51.8149 106.562 50.5625 105.826 48.8844 105.823C48.3813 105.823 47.9134 105.819 47.4666 105.812C47.0198 105.809 46.5941 105.805 46.1649 105.805C45.7357 105.805 45.3276 105.809 44.8914 105.819C41.3874 105.914 40.9195 108.359 40.9512 109.806C41.0004 112.003 40.9899 114.252 40.9793 116.428C40.9758 117.329 40.9723 118.229 40.9723 119.126V127.64C40.9723 136.778 40.9723 146.872 40.9723 156.009C40.9723 157.092 40.9723 158.21 41.8834 159.107C42.7805 159.99 43.8993 159.993 44.9828 159.997H45.4121C46.172 159.997 46.9319 160.004 47.6918 160.004C48.3672 160.004 49.0427 160.004 49.7217 159.997H49.9609C50.1861 159.997 50.3936 159.997 50.5766 159.997C50.7419 159.997 50.8967 159.997 51.0339 159.997C51.741 159.997 52.9196 159.997 53.8202 159.093C54.7419 158.171 54.7314 157.032 54.7244 155.712C54.7244 155.515 54.7244 155.298 54.7244 155.06C54.7279 151.381 54.7244 146.746 54.7244 143.126V142.587C55.4526 142.951 56.2195 143.273 57.0428 143.498C58.7103 143.95 60.3884 144.181 62.0314 144.181C65.764 144.181 69.3102 143.028 72.5715 140.754C77.5249 137.303 80.1107 132.02 80.2619 125.047C80.3745 119.9 78.9391 115.314 76.1106 111.782L76.1141 111.793ZM77.94 125.005C77.8169 130.629 76.0297 135.527 71.2416 138.866C68.392 140.849 65.2891 141.872 62.0349 141.872C60.603 141.872 59.1395 141.672 57.6584 141.273C55.8325 140.775 54.1966 139.591 52.3989 138.684C52.3989 143.711 52.4024 149.867 52.3989 155.07C52.3989 157.495 52.5713 157.691 51.0374 157.691C50.7454 157.691 50.3901 157.684 49.9644 157.684C49.8835 157.684 49.7956 157.684 49.7076 157.684C49.0357 157.688 48.3672 157.691 47.6953 157.691C46.7946 157.691 45.894 157.691 44.9934 157.684C43.3258 157.681 43.3047 157.66 43.3047 156.013C43.3047 144.037 43.3047 131.105 43.3047 119.13C43.3047 116.004 43.3505 112.879 43.2836 109.757C43.2555 108.492 43.7093 108.17 44.9582 108.135C45.3734 108.125 45.7709 108.121 46.1684 108.121C47.0233 108.121 47.8782 108.139 48.8844 108.139C49.8483 108.139 50.3303 108.513 50.5801 109.379C50.8334 110.251 51.143 111.106 51.4737 112.101C51.8079 111.737 52.0612 111.457 52.3215 111.183C54.8545 108.482 57.9469 107.448 61.37 107.448C62.0454 107.448 62.735 107.487 63.4351 107.564C72.8635 108.58 78.1441 115.857 77.947 125.005H77.94Z" fill="#053C5E"/>
<path d="M60.8458 133.102C65.5516 133.102 69.3665 129.311 69.3665 124.634C69.3665 119.957 65.5516 116.165 60.8458 116.165C56.1399 116.165 52.325 119.957 52.325 124.634C52.325 129.311 56.1399 133.102 60.8458 133.102Z" fill="#053C5E"/>
<path d="M157.631 142.257C155.042 142.257 153.378 141.452 151.893 139.472C150.018 136.97 147.977 134.514 146.004 132.135C145.462 131.48 144.917 130.825 144.378 130.17V130.744C144.371 133.677 144.364 136.708 144.393 139.686C144.4 140.229 144.34 141.021 143.763 141.602C143.341 142.026 142.764 142.233 141.993 142.233H141.838C141.047 142.205 140.255 142.198 139.464 142.198C138.897 142.198 138.331 142.201 137.765 142.205C137.195 142.208 136.621 142.212 136.051 142.212H135.977C133.575 142.212 133.054 141.704 133.043 139.349C133.026 134.227 133.012 129.101 133.001 123.979C132.984 113.688 132.966 104.344 132.948 94.0538C132.948 91.7624 133.501 91.2018 135.78 91.1913H136.104C136.649 91.1913 137.195 91.1948 137.743 91.1983C138.282 91.2018 138.823 91.2088 139.362 91.2088C140.248 91.2088 140.97 91.1983 141.634 91.1702C141.708 91.1702 141.779 91.1667 141.846 91.1667C142.665 91.1667 143.277 91.3804 143.717 91.8219C144.326 92.428 144.4 93.2689 144.396 93.9311C144.364 100.564 144.368 106.362 144.371 112.886V117.406L144.941 116.635C146.88 113.997 149.043 111.113 150.985 108.412C151.721 107.389 152.621 106.912 153.824 106.912H153.902C155.158 106.933 156.414 106.94 157.67 106.94L161.547 106.933H162.532C162.715 106.933 162.926 106.94 163.165 106.947L163.534 106.958C164.111 106.972 164.628 107.301 164.885 107.816C165.142 108.331 165.086 108.941 164.745 109.407C164.449 109.81 164.182 110.164 163.956 110.454L162.148 112.781C159.432 116.278 156.463 120.048 153.652 123.569C153.547 123.702 153.494 123.789 153.469 123.835C153.497 123.888 153.564 123.989 153.712 124.164C157.174 128.222 160.657 132.377 164.027 136.392L166.085 138.848C166.257 139.055 166.426 139.272 166.641 139.556L166.789 139.749C167.147 140.215 167.207 140.831 166.947 141.36C166.686 141.889 166.159 142.219 165.571 142.222L162.546 142.236C160.91 142.243 159.337 142.25 157.758 142.264H157.631V142.257Z" fill="white"/>
<path d="M141.849 92.3229C142.94 92.3229 143.242 92.7994 143.235 93.9241C143.193 102.606 143.214 110.346 143.214 119.028V120.86C143.696 120.247 143.974 119.914 144.231 119.564C146.75 116.127 149.444 112.543 151.932 109.085C152.428 108.394 152.966 108.072 153.824 108.072C153.842 108.072 153.863 108.072 153.884 108.072C155.147 108.093 156.41 108.1 157.673 108.1C158.936 108.1 160.259 108.093 161.554 108.093C161.881 108.093 162.204 108.093 162.532 108.093C162.796 108.093 163.123 108.107 163.513 108.114C163.819 108.121 163.995 108.471 163.812 108.72C163.524 109.116 163.263 109.459 163.042 109.743C159.675 114.07 156.168 118.565 152.744 122.847C152.08 123.681 152.185 124.161 152.829 124.914C156.98 129.781 161.082 134.689 165.195 139.588C165.395 139.826 165.589 140.085 165.863 140.446C166.053 140.695 165.874 141.056 165.561 141.056C162.792 141.073 160.273 141.073 157.744 141.098C157.705 141.098 157.666 141.098 157.627 141.098C155.481 141.098 154.113 140.499 152.822 138.775C150.162 135.229 147.256 131.865 144.449 128.425C144.125 128.029 143.791 127.637 143.298 127.048C143.26 127.64 143.214 127.997 143.214 128.358C143.21 132.135 143.186 135.912 143.225 139.689C143.235 140.649 142.943 141.066 141.986 141.066C141.948 141.066 141.909 141.066 141.87 141.066C141.068 141.042 140.262 141.035 139.46 141.035C138.324 141.035 137.188 141.049 136.051 141.049C136.027 141.049 135.998 141.049 135.974 141.049C134.215 141.049 134.211 141.049 134.204 139.342C134.187 134.22 134.173 129.098 134.162 123.972C134.141 113.681 134.127 104.337 134.109 94.0468C134.109 92.4035 134.159 92.351 135.78 92.3475C135.886 92.3475 135.988 92.3475 136.093 92.3475C137.181 92.3475 138.271 92.365 139.358 92.365C140.132 92.365 140.903 92.3545 141.677 92.3264C141.733 92.3264 141.789 92.3264 141.842 92.3264M141.849 90.007C141.765 90.007 141.68 90.007 141.592 90.0105C140.941 90.035 135.78 90.0315 135.78 90.0315C134.753 90.0315 133.589 90.0385 132.681 90.9635C131.787 91.871 131.791 92.9816 131.791 94.0538C131.805 104.344 131.823 113.688 131.844 123.979C131.854 129.101 131.868 134.227 131.886 139.349C131.889 140.509 131.893 141.606 132.825 142.499C133.722 143.361 134.771 143.361 135.981 143.365H136.058C136.632 143.365 137.205 143.361 137.779 143.358C138.342 143.354 138.904 143.351 139.467 143.351C140.378 143.351 141.121 143.361 141.803 143.382C141.867 143.382 141.93 143.382 141.993 143.382C143.077 143.382 143.949 143.056 144.59 142.408C145.575 141.416 145.561 140.099 145.557 139.665C145.536 137.58 145.532 135.467 145.536 133.379C147.365 135.586 149.24 137.86 150.964 140.155C152.649 142.405 154.708 143.407 157.635 143.407H157.772C159.341 143.389 160.906 143.386 162.532 143.379C163.52 143.375 164.533 143.372 165.582 143.365C166.616 143.358 167.541 142.779 167.995 141.854C168.453 140.929 168.343 139.847 167.717 139.03L167.57 138.834C167.362 138.561 167.179 138.323 166.986 138.092L164.892 135.597C161.645 131.725 158.289 127.724 154.95 123.803C157.642 120.429 160.481 116.821 163.073 113.482L164.885 111.152C165.117 110.854 165.388 110.493 165.694 110.08C166.292 109.267 166.387 108.198 165.941 107.294C165.494 106.39 164.586 105.812 163.573 105.788L163.211 105.777C162.957 105.77 162.736 105.763 162.546 105.763H161.561C160.913 105.763 160.263 105.763 159.615 105.763C158.971 105.763 158.324 105.763 157.68 105.763C156.168 105.763 155.01 105.756 153.93 105.739H153.832C152.245 105.739 151.007 106.387 150.05 107.718C148.618 109.708 146.996 111.87 145.546 113.843C145.546 113.485 145.546 113.128 145.546 112.77C145.546 106.282 145.539 100.518 145.571 93.9241C145.575 93.1078 145.473 91.913 144.554 90.9915C143.893 90.3293 142.985 89.9965 141.86 89.9965L141.849 90.007Z" fill="#053C5E"/>
<path d="M96.8073 143.014C91.3931 143.014 85.9788 140.506 83.013 136.627C77.6797 129.648 78.0561 118.292 83.8292 111.835C86.8266 108.482 91.9489 106.313 96.8742 106.313C98.6825 106.313 100.368 106.6 101.887 107.172C103.347 107.718 104.646 108.594 105.898 109.442C106.063 109.554 106.229 109.666 106.398 109.778C107.453 107.161 108.199 106.93 111.745 106.93C116.347 106.93 116.874 107.448 116.874 111.972C116.874 111.972 116.874 132.472 116.874 139.307C116.874 141.651 116.297 142.226 113.94 142.229H113.859C113.42 142.229 112.98 142.226 112.54 142.219C112.107 142.215 111.678 142.208 111.245 142.208C110.573 142.208 110.025 142.219 109.522 142.243C109.437 142.247 109.353 142.25 109.272 142.25C107.815 142.25 106.869 141.504 106.531 140.096C106.486 139.91 106.433 139.721 106.373 139.532C104.005 141.788 100.674 143.014 96.8073 143.014ZM97.6939 117.749C93.4335 117.749 90.6789 120.486 90.6683 124.721C90.6648 126.74 91.3649 128.551 92.6384 129.823C93.9014 131.081 95.6921 131.774 97.6833 131.774C101.986 131.753 104.857 128.94 104.864 124.771C104.871 120.657 101.944 117.77 97.7467 117.746H97.6904L97.6939 117.749Z" fill="white"/>
<path d="M97.7537 116.589C97.7326 116.589 97.7115 116.589 97.6904 116.589C92.8108 116.589 89.5109 119.862 89.5039 124.721C89.4968 129.514 92.9058 132.938 97.6833 132.938C97.7009 132.938 97.715 132.938 97.7326 132.938C102.605 132.913 106.018 129.557 106.028 124.778C106.035 120.016 102.605 116.621 97.7572 116.593L97.7537 116.589Z" fill="#053C5E"/>
<path d="M118.042 111.965C118.042 109.624 118.042 108.079 116.85 106.912C115.671 105.76 114.194 105.76 111.745 105.76C109.648 105.76 108.382 105.76 107.196 106.576C106.633 106.965 106.236 107.441 105.902 108.037C104.79 107.298 103.625 106.579 102.299 106.078C100.649 105.458 98.8232 105.146 96.8742 105.146C91.6323 105.146 86.1687 107.466 82.9568 111.057C76.8353 117.907 76.4343 129.935 82.0843 137.331C85.3103 141.557 90.9533 144.177 96.8073 144.177C100.241 144.177 103.372 143.221 105.814 141.487C106.482 142.723 107.696 143.382 109.268 143.382C109.367 143.382 110.573 143.386 111.224 143.386C111.65 143.386 112.093 143.372 112.523 143.379C112.966 143.382 113.409 143.389 113.852 143.389H113.937C115.045 143.389 116.192 143.389 117.11 142.475C118.039 141.557 118.039 140.411 118.039 139.304C118.039 132.486 118.039 125.667 118.039 118.853V111.968L118.042 111.965ZM115.703 139.3C115.703 141.014 115.654 141.056 113.937 141.059C113.909 141.059 113.88 141.059 113.856 141.059C112.987 141.059 112.118 141.042 111.249 141.042C110.654 141.042 110.06 141.049 109.465 141.08C109.398 141.08 109.335 141.084 109.275 141.084C108.399 141.084 107.893 140.751 107.671 139.826C107.481 139.027 107.154 138.26 106.89 137.482C106.756 137.503 106.64 137.489 106.605 137.534C104.318 140.506 100.642 141.851 96.8073 141.851C91.9419 141.851 86.8196 139.686 83.9453 135.923C79.0025 129.455 79.2839 118.671 84.7052 112.609C87.5408 109.438 92.3711 107.476 96.8777 107.476C98.489 107.476 100.055 107.725 101.476 108.261C103.421 108.99 105.106 110.398 106.967 111.53C106.957 111.555 106.953 111.565 106.953 111.565C106.953 111.565 107.017 111.446 107.062 111.32C107.843 109.171 109.404 108.097 111.745 108.097C114.384 108.097 115.703 109.389 115.703 111.975C115.703 121.088 115.703 130.198 115.703 139.311V139.3Z" fill="#053C5E"/>
<path d="M30.3548 143.025C27.8992 143.025 25.3486 142.702 22.5588 142.037C18.8015 141.14 15.4065 139.626 12.4725 137.531C11.0582 136.522 10.8014 135.268 11.7126 133.807C12.483 132.57 13.2078 131.263 13.9114 129.998C14.2315 129.42 14.5517 128.842 14.8788 128.267C15.4382 127.279 15.8815 126.501 16.8982 126.501C17.4963 126.501 17.9642 126.803 18.6678 127.262L18.7698 127.328C22.7663 129.924 26.5271 131.186 30.2703 131.186C31.2202 131.186 32.1842 131.105 33.1411 130.94C34.098 130.779 35.1253 130.373 35.9555 129.826C36.8737 129.22 37.3874 128.369 37.3592 127.482C37.3346 126.666 36.8526 125.944 35.9977 125.45C34.4005 124.525 32.4762 123.958 30.6151 123.411L30.1437 123.271C29.0109 122.935 27.8147 122.658 26.6608 122.392C25.0671 122.024 23.4172 121.642 21.8235 121.085C14.6255 118.565 11.0793 113.657 11.2834 106.485C11.4804 99.4529 15.593 94.0993 22.2808 92.1688C24.353 91.5697 26.1648 91.2018 28.7998 91.2018C29.3169 91.2018 29.8693 91.2158 30.4392 91.2473C34.8403 91.5626 39.9555 92.2704 44.7331 95.1539C47.048 96.5519 47.2766 97.2771 46.186 99.7192C45.9503 100.252 45.7041 100.777 45.4613 101.306C44.8984 102.529 44.3144 103.797 43.8324 105.055C43.3857 106.226 42.6996 106.818 41.792 106.818C41.1482 106.818 40.5607 106.488 40.0752 106.166C37.0039 104.137 33.6336 103.107 30.0557 103.107C29.7215 103.107 29.3873 103.118 29.0496 103.132C27.0021 103.237 25.4963 103.727 24.3108 104.67C23.4348 105.367 22.9809 106.296 23.097 107.158C23.1955 107.9 23.7162 108.513 24.5641 108.881C26.2351 109.61 27.9977 110.101 29.8622 110.623C30.9212 110.92 32.0188 111.225 33.0918 111.579C33.6195 111.754 34.1543 111.923 34.6855 112.094C36.828 112.781 39.0444 113.489 41.1306 114.473C46.4604 116.996 49.2362 121.565 49.1588 127.689C49.0849 133.505 46.2142 137.979 40.8632 140.632C37.616 142.24 34.1789 143.025 30.3583 143.025H30.3548Z" fill="white"/>
<path d="M199.383 113.986V113.692C199.376 111.271 199.369 109.228 199.38 108.149C199.38 107.855 199.39 106.965 198.722 106.338C198.099 105.753 197.294 105.753 196.907 105.753H195.552C194.254 105.756 193.139 105.76 192.108 105.753C191.682 105.746 190.785 105.739 190.117 106.359C189.469 106.958 189.399 107.778 189.403 108.342C189.438 114.841 189.427 121.561 189.413 127.735C189.413 128.635 189.35 129.346 189.223 129.977C188.78 132.167 186.986 133.677 184.65 133.821C181.775 134.003 179.707 132.839 178.986 130.639C178.697 129.756 178.542 128.723 178.535 127.563C178.49 121.47 178.49 115.118 178.535 108.366C178.539 107.792 178.468 106.961 177.814 106.355C177.167 105.756 176.315 105.763 175.76 105.76C174.641 105.76 173.564 105.76 172.53 105.76H171.059C170.665 105.76 169.846 105.76 169.216 106.352C168.773 106.772 168.548 107.368 168.551 108.125C168.562 110.948 168.562 113.888 168.562 116.712V117.115C168.562 120.804 168.562 124.497 168.579 128.187C168.6 131.985 169.582 135.085 171.573 137.664C174.359 141.269 179.042 143.421 184.104 143.421C186.254 143.421 188.326 143.028 190.261 142.257C195.925 139.998 198.965 135.67 199.306 129.395C199.436 126.992 199.411 119.427 199.394 113.986H199.383Z" fill="#C1121F"/>
<path d="M125.701 142.331C125.617 142.331 125.525 142.331 125.434 142.324C124.487 142.278 123.52 142.254 122.552 142.254C121.585 142.254 120.6 142.278 119.622 142.324C119.53 142.327 119.443 142.331 119.358 142.331C118.535 142.331 117.919 142.117 117.476 141.672C116.86 141.059 116.793 140.194 116.797 139.595C116.815 135.369 116.797 131.067 116.776 126.911C116.769 125.208 116.762 123.506 116.755 121.799C116.744 117.826 116.734 113.857 116.727 109.883C116.727 108.78 116.727 108.054 117.314 107.483C117.884 106.933 118.588 106.919 119.749 106.919C120.706 106.919 121.662 106.832 122.619 106.821H122.975C124.618 106.821 125.564 107.452 126.194 108.801C127.889 107.578 130.004 106.464 132.516 106.397C132.66 106.394 132.801 106.39 132.945 106.39C134.665 106.39 136.371 106.649 138.021 106.898L138.94 107.035C139.478 107.112 140.009 107.469 140.329 107.963C140.639 108.44 140.727 109.011 140.583 109.572C140.139 111.744 139.612 113.927 139.101 116.039L138.848 117.09C138.609 118.085 137.909 118.681 136.977 118.681C136.688 118.681 136.378 118.625 136.034 118.506C135.02 118.166 134.12 117.924 133.283 117.77C132.966 117.711 132.656 117.683 132.361 117.683C131.105 117.683 130.011 118.201 129.015 119.27C128.459 119.869 128.224 120.475 128.231 121.291C128.255 124.315 128.255 127.384 128.255 130.352C128.255 133.348 128.255 136.445 128.28 139.486C128.287 140.176 128.213 141.045 127.597 141.665C127.151 142.114 126.535 142.331 125.705 142.331H125.701Z" fill="white"/>
<path d="M132.973 107.466C134.911 107.466 136.867 107.816 138.799 108.097C139.087 108.139 139.664 108.545 139.471 109.211C138.957 111.73 138.342 114.224 137.74 116.726C137.62 117.224 137.371 117.423 137.005 117.423C136.839 117.423 136.649 117.381 136.435 117.311C135.485 116.989 134.507 116.712 133.522 116.533C133.131 116.46 132.755 116.425 132.389 116.425C130.767 116.425 129.367 117.115 128.185 118.387C127.446 119.182 127.08 120.065 127.087 121.211C127.14 127.276 127.084 133.341 127.137 139.409C127.147 140.569 126.862 141.077 125.733 141.077C125.666 141.077 125.596 141.077 125.522 141.07C124.544 141.021 123.566 141 122.584 141C121.589 141 120.589 141.024 119.597 141.07C119.523 141.07 119.457 141.073 119.39 141.073C118.331 141.073 117.993 140.635 117.997 139.51C118.021 133.575 117.972 127.64 117.954 121.708C117.94 117.739 117.933 113.867 117.926 109.894C117.926 108.114 117.926 108.1 119.78 108.097C120.836 108.097 121.888 108.104 122.936 108.097C122.961 108.097 122.982 108.097 123.006 108.097C124.287 108.097 124.843 108.293 125.325 109.6C125.441 109.943 125.515 110.241 125.694 110.7C127.77 108.986 130 107.543 132.575 107.476C132.709 107.476 132.843 107.473 132.976 107.473M132.973 105.136C132.818 105.136 132.667 105.136 132.512 105.143C130.208 105.202 128.199 106.166 126.567 107.179C125.743 106.208 124.589 105.763 123.006 105.763H122.918H122.588C121.652 105.77 120.716 105.76 119.78 105.763C118.528 105.763 117.448 105.781 116.537 106.656C115.587 107.571 115.587 108.699 115.59 109.897C115.597 113.871 115.604 117.742 115.618 121.715C115.625 123.418 115.632 125.121 115.639 126.82C115.657 130.979 115.678 135.278 115.661 139.5C115.661 139.962 115.654 141.374 116.681 142.405C117.346 143.07 118.243 143.389 119.379 143.389C119.481 143.389 121.585 143.386 122.531 143.386C123.478 143.386 125.648 143.386 125.754 143.386C126.894 143.386 127.794 143.063 128.459 142.391C129.392 141.455 129.49 140.225 129.483 139.381C129.455 136.347 129.458 133.253 129.458 130.261C129.458 127.286 129.458 124.213 129.434 121.183C129.43 120.661 129.553 120.342 129.905 119.963C130.918 118.874 131.808 118.751 132.392 118.751C132.618 118.751 132.857 118.776 133.1 118.818C133.884 118.961 134.732 119.189 135.689 119.511C136.16 119.669 136.59 119.746 137.008 119.746C138.496 119.746 139.65 118.793 140.02 117.262L140.273 116.211C140.783 114.098 141.307 111.916 141.754 109.736C141.972 108.867 141.828 107.984 141.346 107.235C140.846 106.467 140.002 105.91 139.14 105.784C138.838 105.739 138.531 105.693 138.225 105.647C136.533 105.392 134.781 105.129 132.976 105.129L132.973 105.136Z" fill="#053C5E"/>
<path d="M205.881 159.997C203.563 159.989 203.032 159.46 203.032 157.166V117.921C203.032 117.024 203.032 116.123 203.039 115.226C203.049 113.044 203.056 110.787 203.01 108.573C202.958 106.127 204.587 105.802 205.818 105.767C206.24 105.756 206.648 105.753 207.056 105.753C207.464 105.753 207.904 105.756 208.344 105.763C208.798 105.767 209.266 105.774 209.776 105.774C211.243 105.774 212.189 106.474 212.587 107.855C212.668 108.132 212.752 108.408 212.847 108.692C215.352 106.264 218.441 105.083 222.258 105.083C222.958 105.083 223.693 105.125 224.446 105.206C234.117 106.25 240.217 113.559 239.996 123.825C239.852 130.499 237.498 135.338 232.801 138.607C229.737 140.74 226.416 141.823 222.93 141.823C221.389 141.823 219.816 141.606 218.247 141.182C216.886 140.81 215.651 140.117 214.458 139.437V141.974C214.458 145.575 214.458 152.558 214.458 156.223V156.885C214.469 158.115 214.476 158.858 213.895 159.439C213.336 160 212.558 160 211.932 160C211.932 160 211.091 159.993 210.863 159.993H210.613C209.945 160 209.276 160 208.608 160C207.844 160 205.888 159.993 205.888 159.993L205.881 159.997ZM221.649 116.323C217.452 116.327 214.606 119.165 214.564 123.383C214.543 125.468 215.218 127.258 216.516 128.565C217.804 129.861 219.58 130.545 221.649 130.545C225.846 130.545 228.675 127.71 228.689 123.488C228.696 121.34 228.02 119.526 226.733 118.24C225.477 116.985 223.721 116.323 221.656 116.323H221.649Z" fill="#C1121F"/>
<path d="M42.2036 113.706L42.58 107.876C43.3681 107.662 44.318 107.059 44.9266 105.469C45.3945 104.246 45.9433 103.055 46.5238 101.797C46.77 101.261 47.0163 100.728 47.2555 100.192C47.7657 99.05 48.2476 97.9709 47.8536 96.7095C47.4561 95.4307 46.3795 94.7825 45.3382 94.1554C40.3496 91.1387 35.062 90.4029 30.5448 90.0841H30.5201H30.4955C29.9045 90.0526 29.331 90.0385 28.7963 90.0385C26.0311 90.0385 24.061 90.445 21.9537 91.0546C14.7522 93.1288 10.3265 98.8853 10.1119 106.453C9.89729 114.081 13.8094 119.518 21.433 122.185C23.0865 122.763 24.7681 123.152 26.3899 123.527C27.579 123.803 28.7048 124.063 29.8025 124.389L30.2774 124.529C32.156 125.082 33.9291 125.604 35.4032 126.459C35.7515 126.659 36.1666 127.006 36.1807 127.517C36.1948 127.983 35.8641 128.481 35.3012 128.856C34.6046 129.315 33.7427 129.658 32.937 129.795C32.047 129.945 31.1464 130.023 30.2633 130.023C26.7558 130.023 23.2061 128.821 19.4031 126.354L19.3046 126.288C18.52 125.776 17.8411 125.335 16.8947 125.335C15.1955 125.335 14.4532 126.641 13.8551 127.693C13.5279 128.271 13.2043 128.852 12.8806 129.434C12.1524 130.744 11.4663 131.981 10.71 133.193C9.47161 135.183 9.86211 137.11 11.783 138.484C14.8402 140.663 18.3723 142.243 22.2773 143.175C25.1586 143.862 27.8007 144.198 30.3478 144.198C34.2985 144.198 38.0066 143.354 41.3733 141.683C47.1465 138.824 50.2388 133.992 50.3198 127.71C50.4007 121.323 47.5968 116.495 42.1966 113.709L42.2036 113.706ZM40.3355 139.588C37.0919 141.192 33.7497 141.858 30.3548 141.858C27.8675 141.858 25.3521 141.501 22.8297 140.901C19.3433 140.071 16.0891 138.677 13.1515 136.581C12.2649 135.947 12.1066 135.383 12.7047 134.42C13.8375 132.601 14.8366 130.702 15.8956 128.842C16.3635 128.022 16.5675 127.668 16.8947 127.668C17.1586 127.668 17.5033 127.899 18.126 128.306C21.8868 130.751 25.8869 132.352 30.2668 132.352C31.2695 132.352 32.2897 132.268 33.3346 132.09C34.4674 131.897 35.6389 131.431 36.5958 130.797C39.1394 129.122 39.2062 125.958 36.5818 124.438C34.7242 123.362 32.5571 122.766 30.4709 122.146C27.7409 121.337 24.8842 120.913 22.207 119.977C15.4382 117.612 12.2649 113.096 12.4514 106.516C12.6273 100.315 16.1067 95.1644 22.6045 93.2865C24.557 92.7224 26.2879 92.365 28.7963 92.365C29.2888 92.365 29.813 92.379 30.3759 92.407C35.3434 92.7609 39.8782 93.5808 44.1245 96.1455C45.9433 97.2456 45.9574 97.3577 45.1166 99.2392C44.3144 101.033 43.442 102.802 42.7384 104.635C42.4639 105.35 42.1755 105.644 41.792 105.644C41.5035 105.644 41.1587 105.476 40.7225 105.188C37.4753 103.044 33.9115 101.937 30.0558 101.937C29.704 101.937 29.3486 101.948 28.9898 101.965C27.0302 102.067 25.1551 102.501 23.579 103.755C21.2114 105.637 21.3345 108.748 24.0927 109.946C26.8438 111.141 29.8517 111.74 32.7224 112.683C35.3821 113.559 38.1086 114.33 40.624 115.524C45.69 117.924 48.0541 122.108 47.9838 127.672C47.9134 133.214 45.2186 137.163 40.3355 139.584V139.588Z" fill="#053C5E"/>
</svg>
